<?xml version="1.0" encoding="utf-8"?>
<!-- Generator: Adobe Illustrator 28.0.0, SVG Export Plug-In . SVG Version: 6.00 Build 0)  -->
<svg version="1.1" id="Layer_1" xmlns="http://www.w3.org/2000/svg" xmlns:xlink="http://www.w3.org/1999/xlink" x="0px" y="0px"
	 viewBox="0 0 500 500" style="enable-background:new 0 0 500 500;" xml:space="preserve">
<style type="text/css">
	.st0{opacity:0.22;fill:#6652A3;}
	.st1{opacity:0.33;clip-path:url(#SVGID_00000160155582676478441960000015422178147327838901_);fill:#6652A3;}
	.st2{opacity:0.27;clip-path:url(#SVGID_00000160155582676478441960000015422178147327838901_);fill:#6652A3;}
	.st3{opacity:0.23;clip-path:url(#SVGID_00000160155582676478441960000015422178147327838901_);fill:#6652A3;}
	.st4{fill:#6652A3;}
	.st5{opacity:0.75;}
	.st6{opacity:0.59;fill:url(#SVGID_00000085950658499354162260000017043114459712799370_);}
	.st7{fill:#F37260;}
	.st8{fill:#AF98C8;}
	.st9{fill:#6F5AA6;}
	.st10{fill:none;stroke:#F5F5F3;stroke-width:0.8254;stroke-linecap:round;stroke-linejoin:round;stroke-miterlimit:10;}
	.st11{fill:#A1DDF9;}
	.st12{fill:#C7B6D9;}
	.st13{fill:url(#SVGID_00000079475005292661620720000002276898335726221229_);}
	.st14{fill:url(#SVGID_00000060730026194972680960000008039042168543963307_);}
	.st15{opacity:0.57;fill:#7A52A1;}
	.st16{opacity:0.22;fill:#7A52A1;}
	.st17{fill:none;stroke:#D38BBC;stroke-width:2;stroke-linecap:round;stroke-linejoin:round;stroke-miterlimit:10;}
	.st18{fill:url(#SVGID_00000120555839622776789690000009032445948336941967_);}
	.st19{fill:url(#SVGID_00000062180201092996510510000008358368045476888200_);}
	.st20{fill:url(#SVGID_00000160186211150575876100000014601663890348598458_);}
	.st21{opacity:0.75;fill:#D38BBC;}
	.st22{fill:none;stroke:#D38BBC;stroke-width:1.8575;stroke-linecap:round;stroke-linejoin:round;stroke-miterlimit:10;}
	.st23{fill:none;stroke:#A1DDF9;stroke-miterlimit:10;}
	.st24{fill:#F5F5F3;}
	.st25{fill:#FFFFFF;}
	.st26{fill:#D3BDDC;}
	.st27{fill:#1E133A;}
	.st28{fill:#D39AC5;}
	
		.st29{opacity:0.51;fill:none;stroke:#6652A3;stroke-width:0.7164;stroke-linecap:round;stroke-linejoin:round;stroke-miterlimit:10;}
	.st30{opacity:0.51;fill:#6652A3;}
	.st31{fill:#B16DAD;}
	.st32{fill:none;stroke:#FFFFFF;stroke-miterlimit:10;}
	.st33{opacity:0.45;fill:#A1DDF9;}
	.st34{fill:none;stroke:#A1DDF9;stroke-width:2;stroke-linecap:round;stroke-linejoin:round;stroke-miterlimit:10;}
	
		.st35{fill:none;stroke:url(#SVGID_00000050664619305024798650000015236368830704846231_);stroke-width:2;stroke-linecap:round;stroke-linejoin:round;stroke-miterlimit:10;}
	
		.st36{fill:none;stroke:url(#SVGID_00000017516472438837994850000013308210457361774482_);stroke-width:2;stroke-linecap:round;stroke-linejoin:round;stroke-miterlimit:10;}
	
		.st37{fill:none;stroke:url(#SVGID_00000073716199521690089350000014807621505639699332_);stroke-width:2;stroke-linecap:round;stroke-linejoin:round;stroke-miterlimit:10;}
	.st38{fill:none;}
</style>
<image style="overflow:visible;" width="509" height="509" xlink:href="580B7B1B.jpg"  transform="matrix(1.0192 0 0 1.0192 -9.4035 -9.3126)">
</image>
<polygon class="st0" points="509.3,271.5 224.2,509.6 509.3,509.5 "/>
<g>
	<defs>
		<rect id="SVGID_1_" x="-10.5" y="-10.2" width="519.9" height="519.7"/>
	</defs>
	<clipPath id="SVGID_00000086680888219774856620000001384706064766845855_">
		<use xlink:href="#SVGID_1_"  style="overflow:visible;"/>
	</clipPath>
	<polygon style="opacity:0.33;clip-path:url(#SVGID_00000086680888219774856620000001384706064766845855_);fill:#6652A3;" points="
		-16.5,266.8 -59.4,264.7 231.8,-11.5 274.7,-9.4 	"/>
	<polygon style="opacity:0.27;clip-path:url(#SVGID_00000086680888219774856620000001384706064766845855_);fill:#6652A3;" points="
		273.7,398.7 24.9,604.1 60.6,608.2 314.3,398.7 	"/>
	<polygon style="opacity:0.23;clip-path:url(#SVGID_00000086680888219774856620000001384706064766845855_);fill:#6652A3;" points="
		383,340.7 347.4,336.6 605.2,123.8 640.8,127.9 	"/>
</g>
<path class="st4" d="M241.8,21.3c0,1.2-1,2.2-2.2,2.2c-1.2,0-2.2-1-2.2-2.2c0-1.2,1-2.2,2.2-2.2C240.9,19.1,241.8,20.1,241.8,21.3z"
	/>
<g class="st5">
	
		<image style="overflow:visible;" width="670" height="670" xlink:href="580B7B19.png"  transform="matrix(0.24 0 0 0.24 160.32 7.44)">
	</image>
</g>
<linearGradient id="SVGID_00000013896601496539705990000011217548803600866435_" gradientUnits="userSpaceOnUse" x1="248.2269" y1="-2.5749" x2="248.2269" y2="507.5934">
	<stop  offset="0" style="stop-color:#2B1652"/>
	<stop  offset="0.5983" style="stop-color:#513C7E"/>
	<stop  offset="1" style="stop-color:#6F5AA6"/>
</linearGradient>
<rect x="116.1" y="-10.3" style="opacity:0.59;fill:url(#SVGID_00000013896601496539705990000011217548803600866435_);" width="264.2" height="519.5"/>
<path class="st7" d="M234.8,116.7c0.4,2.2,0.6,4.4,0.7,6.6c0.1,3.3-0.3,6.9-2.6,9.3c1.4,2,3.6,3.6,5.9,4.2c2.3,0.6,4.9,0.4,7.1-0.7
	c0.6-0.3,1.2-0.6,1.7-1c0.7-0.4,1.4-0.8,2.1-1.2c-3-5.2-5.6-11-4.8-16.9c-1.5-0.3-3.6-0.9-5.2-1.2c-0.7-0.1-1.3-0.2-2-0.2
	C236.7,115.5,235.8,116.9,234.8,116.7z"/>
<path class="st8" d="M246.5,127.3c0.9,2.3,2,4.5,3.3,6.6c-0.7,0.4-1.4,0.8-2.1,1.2c-0.6,0.3-1.1,0.7-1.7,1c-2.2,1-4.7,1.3-7.1,0.7
	c-2.3-0.6-4.5-2.2-5.9-4.2c1.4-1.4,2.1-3.3,2.4-5.3H246.5z"/>
<path class="st9" d="M246.5,273.7l-15.7-0.9c-12.5-0.7-22.1-11.5-21.4-23.9l2.5-44.3c0.7-12.5,11.5-22.1,23.9-21.4l15.7,0.9
	c12.5,0.7,22.1,11.5,21.4,23.9l-2.5,44.3C269.7,264.8,259,274.4,246.5,273.7z"/>
<g>
	<path class="st9" d="M235.4,273.7c5.3-0.6,10.4-2.6,14.6-5.9L235.4,273.7z"/>
</g>
<path class="st10" d="M331.4,446.7c1-0.2,0.6-1.8-0.1-2.6c-2.4-2.6-5.4-4.8-8.6-6.5"/>
<g>
	<path class="st11" d="M375.7,68.5c10.1,0,18.9,5.9,23.1,14.4c0.4-0.2,0.7-0.4,1.1-0.6c0,0,0.1,0,0.1,0c-4.4-9-13.7-15.1-24.3-15.1
		c-4.2,0-8.2,1-11.8,2.7c0.1,0.5,0.1,1,0.2,1.5C367.6,69.5,371.5,68.5,375.7,68.5z"/>
	<path class="st11" d="M366.8,118.4c-9.8-3.6-16.8-13.1-16.8-24.1c0-9.1,4.8-17.1,12-21.7c-0.1-0.5-0.3-1-0.4-1.4
		c-7.8,4.8-13,13.4-13,23.2c0,11.4,7.1,21.2,17.2,25.2C366.1,119.1,366.4,118.8,366.8,118.4z"/>
	<path class="st11" d="M400.9,84.1c-0.4,0.2-0.8,0.5-1.2,0.7c1.2,2.9,1.8,6.1,1.8,9.4c0,14.2-11.5,25.7-25.7,25.7
		c-2.3,0-4.6-0.3-6.7-0.9c-0.4,0.4-0.7,0.8-1.1,1.1c2.5,0.7,5.1,1.2,7.8,1.2c15,0,27.1-12.2,27.1-27.1
		C402.8,90.7,402.1,87.3,400.9,84.1z"/>
</g>
<path class="st12" d="M248.9,454.6h-110c-0.9,0-1.6-0.7-1.6-1.6l0,0c0-0.9,0.7-1.6,1.6-1.6h110c0.9,0,1.6,0.7,1.6,1.6l0,0
	C250.5,453.9,249.8,454.6,248.9,454.6z"/>
<path class="st12" d="M353.3,453.6h-87.1c-0.7,0-1.2-0.5-1.2-1.2l0,0c0-0.7,0.5-1.2,1.2-1.2h87.1c0.7,0,1.2,0.5,1.2,1.2l0,0
	C354.5,453,354,453.6,353.3,453.6z"/>
<linearGradient id="SVGID_00000070121026658675501600000008659032340994363783_" gradientUnits="userSpaceOnUse" x1="-1175.9332" y1="402.2438" x2="-1175.9332" y2="494.0364" gradientTransform="matrix(-1 0 0 -1 -1079.3333 758.6667)">
	<stop  offset="0" style="stop-color:#2B1652"/>
	<stop  offset="0.1814" style="stop-color:#2E1955"/>
	<stop  offset="0.3875" style="stop-color:#37225E"/>
	<stop  offset="0.6057" style="stop-color:#45316F"/>
	<stop  offset="0.8306" style="stop-color:#5A4589"/>
	<stop  offset="1" style="stop-color:#6F5AA6"/>
</linearGradient>
<path style="fill:url(#SVGID_00000070121026658675501600000008659032340994363783_);" d="M96.6,263.9L96.6,263.9
	c2.3,0,4.1,1.8,4.1,4.1v87.4c0,2.3-1.8,4.1-4.1,4.1l0,0c-2.3,0-4.1-1.8-4.1-4.1V268C92.5,265.7,94.3,263.9,96.6,263.9z"/>
<linearGradient id="SVGID_00000064352808985180740430000014052805491723251599_" gradientUnits="userSpaceOnUse" x1="-1481.3173" y1="407.308" x2="-1481.3173" y2="608.4168" gradientTransform="matrix(-1 0 0 -1 -1079.3333 758.6667)">
	<stop  offset="0" style="stop-color:#2B1652"/>
	<stop  offset="0.1814" style="stop-color:#2E1955"/>
	<stop  offset="0.3875" style="stop-color:#37225E"/>
	<stop  offset="0.6057" style="stop-color:#45316F"/>
	<stop  offset="0.8306" style="stop-color:#5A4589"/>
	<stop  offset="1" style="stop-color:#6F5AA6"/>
</linearGradient>
<path style="fill:url(#SVGID_00000064352808985180740430000014052805491723251599_);" d="M402,148.6L402,148.6c4.9,0,9,4,9,9v191.6
	c0,4.9-4,9-9,9l0,0c-4.9,0-9-4-9-9V157.6C393,152.6,397,148.6,402,148.6z"/>
<path class="st15" d="M304.8,286.9v74.7c0,0,76.4-3.5,99.6-25.9v-70.5C404.4,265.1,378.5,282.7,304.8,286.9z"/>
<path class="st16" d="M192.4,350.1v47.2c0,0-45.9,2.6-61.2-17.2v-43.4C131.1,336.7,147.1,347.5,192.4,350.1z"/>
<path class="st15" d="M182.7,365.3v44.1c0,0-37.8,0.6-61.2-14.1v-43.4C121.5,351.9,137.4,362.7,182.7,365.3z"/>
<g>
	<path class="st11" d="M95.7,413.4H84.1c-0.6,0-1.1-0.5-1.1-1.1v-1.5c0-0.6,0.5-1.1,1.1-1.1h11.6c0.6,0,1.1,0.5,1.1,1.1v1.5
		C96.9,412.9,96.3,413.4,95.7,413.4z"/>
	<g>
		<path class="st11" d="M78.6,381.1H44.9c-1.1,0-2-0.9-2-2l0,0c0-1.1,0.9-2,2-2h33.7c1.1,0,2,0.9,2,2l0,0
			C80.5,380.2,79.6,381.1,78.6,381.1z"/>
		<path class="st11" d="M78.6,401.8H44.9c-1.1,0-2-0.9-2-2l0,0c0-1.1,0.9-2,2-2h33.7c1.1,0,2,0.9,2,2l0,0
			C80.5,401,79.6,401.8,78.6,401.8z"/>
		<path class="st11" d="M78.6,413.2H44.9c-1.1,0-2-0.9-2-2l0,0c0-1.1,0.9-2,2-2h33.7c1.1,0,2,0.9,2,2l0,0
			C80.5,412.3,79.6,413.2,78.6,413.2z"/>
		<path class="st11" d="M96.9,391.7H45c-1.2,0-2.1-0.9-2.1-2.1l0,0c0-1.2,0.9-2.1,2.1-2.1h51.8c1.2,0,2.1,0.9,2.1,2.1l0,0
			C99,390.7,98,391.7,96.9,391.7z"/>
	</g>
</g>
<g>
	<path class="st11" d="M97.8,363.7H86.2c-0.6,0-1.1-0.5-1.1-1.1V361c0-0.6,0.5-1.1,1.1-1.1h11.6c0.6,0,1.1,0.5,1.1,1.1v1.5
		C98.9,363.1,98.4,363.7,97.8,363.7z"/>
	<g>
		<path class="st11" d="M80.6,331.3H47c-1.1,0-2-0.9-2-2l0,0c0-1.1,0.9-2,2-2h33.7c1.1,0,2,0.9,2,2l0,0
			C82.6,330.4,81.7,331.3,80.6,331.3z"/>
		<path class="st11" d="M80.6,352H47c-1.1,0-2-0.9-2-2l0,0c0-1.1,0.9-2,2-2h33.7c1.1,0,2,0.9,2,2l0,0C82.6,351.2,81.7,352,80.6,352z
			"/>
		<path class="st11" d="M80.6,363.4H47c-1.1,0-2-0.9-2-2l0,0c0-1.1,0.9-2,2-2h33.7c1.1,0,2,0.9,2,2l0,0
			C82.6,362.5,81.7,363.4,80.6,363.4z"/>
		<path class="st11" d="M98.9,341.9H47.1c-1.2,0-2.1-0.9-2.1-2.1l0,0c0-1.2,0.9-2.1,2.1-2.1h51.8c1.2,0,2.1,0.9,2.1,2.1l0,0
			C101.1,340.9,100.1,341.9,98.9,341.9z"/>
	</g>
</g>
<g>
	<path class="st11" d="M449.6,398.6H438c-0.6,0-1.1-0.5-1.1-1.1v-1.5c0-0.6,0.5-1.1,1.1-1.1h11.6c0.6,0,1.1,0.5,1.1,1.1v1.5
		C450.7,398.1,450.2,398.6,449.6,398.6z"/>
	<g>
		<path class="st11" d="M432.4,366.3h-33.7c-1.1,0-2-0.9-2-2l0,0c0-1.1,0.9-2,2-2h33.7c1.1,0,2,0.9,2,2l0,0
			C434.4,365.4,433.5,366.3,432.4,366.3z"/>
		<path class="st11" d="M432.4,387h-33.7c-1.1,0-2-0.9-2-2l0,0c0-1.1,0.9-2,2-2h33.7c1.1,0,2,0.9,2,2l0,0
			C434.4,386.1,433.5,387,432.4,387z"/>
		<path class="st11" d="M432.4,398.3h-33.7c-1.1,0-2-0.9-2-2l0,0c0-1.1,0.9-2,2-2h33.7c1.1,0,2,0.9,2,2l0,0
			C434.4,397.5,433.5,398.3,432.4,398.3z"/>
		<path class="st11" d="M450.7,376.8h-51.8c-1.2,0-2.1-0.9-2.1-2.1l0,0c0-1.2,0.9-2.1,2.1-2.1h51.8c1.2,0,2.1,0.9,2.1,2.1l0,0
			C452.8,375.9,451.9,376.8,450.7,376.8z"/>
	</g>
</g>
<g>
	<path class="st11" d="M449.6,457.7H438c-0.6,0-1.1-0.5-1.1-1.1v-1.5c0-0.6,0.5-1.1,1.1-1.1h11.6c0.6,0,1.1,0.5,1.1,1.1v1.5
		C450.7,457.2,450.2,457.7,449.6,457.7z"/>
	<g>
		<path class="st11" d="M432.4,425.4h-33.7c-1.1,0-2-0.9-2-2l0,0c0-1.1,0.9-2,2-2h33.7c1.1,0,2,0.9,2,2l0,0
			C434.4,424.5,433.5,425.4,432.4,425.4z"/>
		<path class="st11" d="M432.4,446.1h-33.7c-1.1,0-2-0.9-2-2l0,0c0-1.1,0.9-2,2-2h33.7c1.1,0,2,0.9,2,2l0,0
			C434.4,445.2,433.5,446.1,432.4,446.1z"/>
		<path class="st11" d="M432.4,457.5h-33.7c-1.1,0-2-0.9-2-2l0,0c0-1.1,0.9-2,2-2h33.7c1.1,0,2,0.9,2,2l0,0
			C434.4,456.6,433.5,457.5,432.4,457.5z"/>
		<path class="st11" d="M450.7,436h-51.8c-1.2,0-2.1-0.9-2.1-2.1l0,0c0-1.2,0.9-2.1,2.1-2.1h51.8c1.2,0,2.1,0.9,2.1,2.1l0,0
			C452.8,435,451.9,436,450.7,436z"/>
	</g>
</g>
<path class="st17" d="M327.2,299.7c24.5-2.4,49.1-7.7,72-16.9"/>
<path class="st17" d="M311.4,300.7c2.6-0.1,5.2-0.2,7.8-0.4"/>
<path class="st17" d="M377.9,301.8c7.2-2.1,14.3-4.5,21.3-7.3"/>
<path class="st17" d="M311.4,312.5c20.1,0,38.7-4.1,58.4-8.5"/>
<path class="st17" d="M330.1,323.6c23.6-2.6,47.1-7.7,69.1-16.6"/>
<path class="st17" d="M311.4,324.9c3.5-0.1,7.1-0.3,10.6-0.6"/>
<path class="st17" d="M385.1,324.5c4.8-1.5,9.5-3.2,14.2-5.1"/>
<path class="st17" d="M359.9,331.2c5.8-1.2,11.6-2.7,17.3-4.3"/>
<path class="st17" d="M311.4,337.4c13.5-0.3,27.1-2.1,40.4-4.5"/>
<path class="st17" d="M337.5,346.2c21.1-2.8,42-7.8,61.7-15.7"/>
<path class="st17" d="M311.4,348.4c6.1-0.1,12.2-0.7,18.3-1.3"/>
<path class="st17" d="M175.8,373.3c-17.6-1.2-31.1-4.6-50.6-10.7"/>
<path class="st17" d="M176,382.4c-17.6-1.2-31.1-4.6-50.6-10.7"/>
<path class="st17" d="M176,391.7c-17.6-1.2-31.1-4.6-50.6-10.7"/>
<path class="st17" d="M176,400.6c-17.6-1.2-31.1-4.6-50.6-10.7"/>
<linearGradient id="SVGID_00000052066661376292845710000010223076865969028268_" gradientUnits="userSpaceOnUse" x1="60.8849" y1="501.7134" x2="60.5391" y2="428.2295">
	<stop  offset="0" style="stop-color:#2B1652"/>
	<stop  offset="0.2106" style="stop-color:#2D1854"/>
	<stop  offset="0.4062" style="stop-color:#34205C"/>
	<stop  offset="0.5959" style="stop-color:#402C6A"/>
	<stop  offset="0.7819" style="stop-color:#523D7E"/>
	<stop  offset="0.9636" style="stop-color:#69539C"/>
	<stop  offset="1" style="stop-color:#6F5AA6"/>
</linearGradient>
<path style="fill:url(#SVGID_00000052066661376292845710000010223076865969028268_);" d="M60.7,502.6L60.7,502.6
	c-1.6,0-2.9-1.3-2.9-2.9v-68.3c0-1.6,1.3-2.9,2.9-2.9l0,0c1.6,0,2.9,1.3,2.9,2.9v68.3C63.6,501.3,62.3,502.6,60.7,502.6z"/>
<linearGradient id="SVGID_00000073709492874214214740000008219969329378840498_" gradientUnits="userSpaceOnUse" x1="108.6192" y1="93.6617" x2="108.2734" y2="20.1777">
	<stop  offset="0" style="stop-color:#2B1652"/>
	<stop  offset="0.2106" style="stop-color:#2D1854"/>
	<stop  offset="0.4062" style="stop-color:#34205C"/>
	<stop  offset="0.5959" style="stop-color:#402C6A"/>
	<stop  offset="0.7819" style="stop-color:#523D7E"/>
	<stop  offset="0.9636" style="stop-color:#69539C"/>
	<stop  offset="1" style="stop-color:#6F5AA6"/>
</linearGradient>
<path style="fill:url(#SVGID_00000073709492874214214740000008219969329378840498_);" d="M108.4,94.5L108.4,94.5
	c-1.6,0-2.9-1.3-2.9-2.9V23.4c0-1.6,1.3-2.9,2.9-2.9l0,0c1.6,0,2.9,1.3,2.9,2.9v68.3C111.3,93.2,110,94.5,108.4,94.5z"/>
<linearGradient id="SVGID_00000155846330033432416130000012851690130318920637_" gradientUnits="userSpaceOnUse" x1="441.1542" y1="173.9786" x2="440.8085" y2="100.4948">
	<stop  offset="0" style="stop-color:#2B1652"/>
	<stop  offset="0.2106" style="stop-color:#2D1854"/>
	<stop  offset="0.4062" style="stop-color:#34205C"/>
	<stop  offset="0.5959" style="stop-color:#402C6A"/>
	<stop  offset="0.7819" style="stop-color:#523D7E"/>
	<stop  offset="0.9636" style="stop-color:#69539C"/>
	<stop  offset="1" style="stop-color:#6F5AA6"/>
</linearGradient>
<path style="fill:url(#SVGID_00000155846330033432416130000012851690130318920637_);" d="M441,174.8L441,174.8
	c-1.6,0-2.9-1.3-2.9-2.9v-68.3c0-1.6,1.3-2.9,2.9-2.9l0,0c1.6,0,2.9,1.3,2.9,2.9V172C443.8,173.6,442.6,174.8,441,174.8z"/>
<ellipse class="st15" cx="174.5" cy="304.7" rx="17.9" ry="25.4"/>
<path class="st21" d="M172.7,266.3l0.5,44.1l22.3-20.7C195.5,289.6,190.3,272,172.7,266.3z"/>
<line class="st17" x1="130.1" y1="274.1" x2="130.1" y2="326"/>
<line class="st17" x1="142" y1="279.3" x2="142" y2="331.1"/>
<line class="st17" x1="136.3" y1="292.8" x2="136.3" y2="328.6"/>
<line class="st17" x1="147.7" y1="296.9" x2="147.7" y2="332.7"/>
<ellipse transform="matrix(1 -3.090122e-03 3.090122e-03 1 -1.1984 1.0496)" class="st22" cx="339.1" cy="388.3" rx="15.4" ry="15.4"/>
<polygon class="st22" points="334.9,388.4 335,380.9 341.4,384.7 347.9,388.5 341.3,392.2 334.8,395.9 "/>
<circle class="st11" cx="134.8" cy="221.7" r="4.7"/>
<circle class="st11" cx="354.2" cy="222.7" r="4.7"/>
<circle class="st11" cx="164.9" cy="101.4" r="2.6"/>
<circle class="st11" cx="239.6" cy="20.4" r="2.6"/>
<circle class="st11" cx="311.7" cy="97.7" r="2.1"/>
<circle class="st11" cx="309.6" cy="197.3" r="2.1"/>
<circle class="st11" cx="160.7" cy="192.7" r="1.6"/>
<circle class="st11" cx="90" cy="40" r="1.6"/>
<circle class="st11" cx="444" cy="250.7" r="2.6"/>
<path class="st11" d="M474.6,340.5c0,0.6,0,1,0,1S474.6,341.1,474.6,340.5c0-0.6,0-1,0-1S474.6,339.9,474.6,340.5z"/>
<circle class="st11" cx="140.5" cy="435.9" r="1"/>
<rect x="340.8" y="172.4" class="st15" width="23.9" height="23.9"/>
<rect x="354.2" y="181.8" class="st15" width="23.9" height="23.9"/>
<rect x="119.7" y="182.8" class="st15" width="23.9" height="23.9"/>
<rect x="140.5" y="178.6" class="st21" width="9.3" height="9.3"/>
<rect x="430.5" y="194.7" class="st21" width="9.3" height="9.3"/>
<g>
	<path class="st11" d="M107.1,202.9H95.5c-0.6,0-1.1-0.5-1.1-1.1v-1.5c0-0.6,0.5-1.1,1.1-1.1h11.6c0.6,0,1.1,0.5,1.1,1.1v1.5
		C108.3,202.3,107.8,202.9,107.1,202.9z"/>
	<g>
		<path class="st11" d="M90,170.5H56.3c-1.1,0-2-0.9-2-2l0,0c0-1.1,0.9-2,2-2H90c1.1,0,2,0.9,2,2l0,0C91.9,169.6,91,170.5,90,170.5z
			"/>
		<path class="st11" d="M90,191.2H56.3c-1.1,0-2-0.9-2-2l0,0c0-1.1,0.9-2,2-2H90c1.1,0,2,0.9,2,2l0,0C91.9,190.4,91,191.2,90,191.2z
			"/>
		<path class="st11" d="M90,202.6H56.3c-1.1,0-2-0.9-2-2l0,0c0-1.1,0.9-2,2-2H90c1.1,0,2,0.9,2,2l0,0C91.9,201.7,91,202.6,90,202.6z
			"/>
		<path class="st11" d="M108.3,181.1H56.5c-1.2,0-2.1-0.9-2.1-2.1l0,0c0-1.2,0.9-2.1,2.1-2.1h51.8c1.2,0,2.1,0.9,2.1,2.1l0,0
			C110.4,180.1,109.4,181.1,108.3,181.1z"/>
	</g>
</g>
<path class="st23" d="M475.5,350.4h-52.9c-3,0-5.4-2.5-5.4-5.4l0,0c0-3,2.5-5.4,5.4-5.4h52.9c3,0,5.4,2.5,5.4,5.4l0,0
	C481,348,478.5,350.4,475.5,350.4z"/>
<path class="st23" d="M102,313.1H49c-3,0-5.4-2.5-5.4-5.4l0,0c0-3,2.5-5.4,5.4-5.4H102c3,0,5.4,2.5,5.4,5.4l0,0
	C107.4,310.6,105,313.1,102,313.1z"/>
<path class="st11" d="M472.4,376.9L472.4,376.9c-1.3,0-2.3-1.1-2.3-2.3l0,0c0-1.3,1.1-2.3,2.3-2.3h0c1.3,0,2.3,1.1,2.3,2.3l0,0
	C474.7,375.8,473.7,376.9,472.4,376.9z"/>
<path class="st11" d="M433.4,341.8L433.4,341.8c-1.3,0-2.3-1.1-2.3-2.3l0,0c0-1.3,1.1-2.3,2.3-2.3l0,0c1.3,0,2.3,1.1,2.3,2.3l0,0
	C435.7,340.7,434.7,341.8,433.4,341.8z"/>
<path class="st11" d="M478.8,351.9L478.8,351.9c-1.3,0-2.3-1.1-2.3-2.3l0,0c0-1.3,1.1-2.3,2.3-2.3l0,0c1.3,0,2.3,1.1,2.3,2.3l0,0
	C481.1,350.8,480.1,351.9,478.8,351.9z"/>
<path class="st11" d="M477.9,320.9L477.9,320.9c-0.9,0-1.6-0.7-1.6-1.6l0,0c0-0.9,0.7-1.6,1.6-1.6l0,0c0.9,0,1.6,0.7,1.6,1.6l0,0
	C479.4,320.2,478.7,320.9,477.9,320.9z"/>
<path class="st11" d="M66.9,283.5L66.9,283.5c-0.9,0-1.6-0.7-1.6-1.6l0,0c0-0.9,0.7-1.6,1.6-1.6l0,0c0.9,0,1.6,0.7,1.6,1.6l0,0
	C68.5,282.8,67.8,283.5,66.9,283.5z"/>
<path class="st11" d="M27.3,355.1L27.3,355.1c-1.3,0-2.3-1.1-2.3-2.3l0,0c0-1.3,1.1-2.3,2.3-2.3l0,0c1.3,0,2.3,1.1,2.3,2.3l0,0
	C29.6,354,28.5,355.1,27.3,355.1z"/>
<path class="st11" d="M98.1,437.6L98.1,437.6c-0.9,0-1.6-0.7-1.6-1.6l0,0c0-0.9,0.7-1.6,1.6-1.6l0,0c0.9,0,1.6,0.7,1.6,1.6l0,0
	C99.6,436.9,98.9,437.6,98.1,437.6z"/>
<path class="st11" d="M477.9,440.7L477.9,440.7c-0.9,0-1.6-0.7-1.6-1.6l0,0c0-0.9,0.7-1.6,1.6-1.6h0c0.9,0,1.6,0.7,1.6,1.6l0,0
	C479.4,440,478.7,440.7,477.9,440.7z"/>
<path class="st11" d="M35.8,155.9L35.8,155.9c-1.7,0-3.1-1.4-3.1-3.1l0,0c0-1.7,1.4-3.1,3.1-3.1l0,0c1.7,0,3.1,1.4,3.1,3.1l0,0
	C38.9,154.5,37.5,155.9,35.8,155.9z"/>
<g>
	<g>
		<path class="st9" d="M305.3,419.3c-0.8,5.3,2,11,6.8,13.6c3.2,1.7,7,1.9,10.5,2.9c6.9,1.9,12.9,6.8,16.1,13.2h-46.6v-30.1
			L305.3,419.3z"/>
		<path class="st9" d="M322.6,435.8c-3.5-1-7.3-1.2-10.5-2.9c-2.8-1.4-4.9-4-6-6.9c-0.9,1.3-1.8,2.7-2.8,3.9c-1,1.2-2,2.4-3.4,3.3
			c-1.3,0.8-2.9,1.1-4.5,0.9c-1.1-0.2-2.2-0.7-3.2-1.3V449h46.6C335.5,442.6,329.5,437.7,322.6,435.8z"/>
		<path class="st9" d="M337.7,451.4h-45.3c-1.3,0-2.3-1.1-2.3-2.3l0,0c0-1.3,1.1-2.3,2.3-2.3h45.3c1.3,0,2.3,1.1,2.3,2.3l0,0
			C340,450.4,339,451.4,337.7,451.4z"/>
	</g>
	<g>
		<path class="st9" d="M207.5,419.4c0.8,5.3-2,11-6.8,13.6c-3.2,1.7-7,1.9-10.5,2.9c-6.9,1.9-12.9,6.8-16.1,13.2h46.6v-30.1
			L207.5,419.4z"/>
		<path class="st9" d="M190.1,435.8c3.5-1,7.3-1.2,10.5-2.9c2.8-1.4,4.9-4,6-6.9c0.9,1.3,1.8,2.7,2.8,3.9c1,1.2,2,2.4,3.4,3.3
			c1.3,0.8,2.9,1.1,4.5,0.9c1.1-0.2,2.2-0.7,3.2-1.3V449H174C177.3,442.7,183.3,437.8,190.1,435.8z"/>
		<path class="st9" d="M175.1,451.5h45.3c1.3,0,2.3-1.1,2.3-2.3l0,0c0-1.3-1.1-2.3-2.3-2.3h-45.3c-1.3,0-2.3,1.1-2.3,2.3l0,0
			C172.7,450.4,173.8,451.5,175.1,451.5z"/>
	</g>
	<path class="st9" d="M221.4,423.4c3-18.7,18.2-161.3,18.1-180.3l-31-4.5c-1.1,19.3-2,163.3-2.1,184.4L221.4,423.4z"/>
	<path class="st9" d="M290.4,339.2c-4-21.8-15.7-81.6-20.5-101.2l-29.6,10c3.7,20.3,22.3,77.2,29.4,96.5L290.4,339.2z"/>
	<path class="st8" d="M282.5,176.7c0,0.7-0.1,1.3-0.1,2c-0.2,2-0.3,4-0.6,6c-0.9,7.5-2.2,14.9-3.2,22.1c0,0.2-0.1,0.5-0.1,0.7
		c0,0.1,0,0.2-0.1,0.3c-0.9,5.3-2.5,12.3-3.9,18.7c-0.7,3.3-1.4,6.4-1.9,9.1c0,0,0,0,0,0v0c0,0,0,0,0,0s0,0,0,0s0,0,0,0
		c-0.1,0.3-0.1,0.7-0.2,1c0,0-0.4,0.2-1.2,0.5c-2,0.9-6.5,2.6-10.7,3.2c-6.4,0.8-12.9,1-19.3,0.9c-4.7-0.1-9.4-0.3-14-0.6
		c-0.9-0.1-13.1-1.4-17.3-1.9c-0.5-0.1-0.8-0.1-1.1-0.1c0,0,0,0,0,0l-0.1,0c-0.1,0-0.2,0-0.2,0c-0.3-4.3-0.9-9.2-1.7-14.5
		c-0.6-4.1-1.4-8.4-2.2-12.8c-1.7-9.2-3.6-18.6-5.2-27c-0.5-2.6-0.9-5.1-1.3-7.5c-0.1-0.4-0.1-0.8-0.2-1.2
		c-1.4-8.5-4.7-19.3-2.9-27.9c1.3-6,7.4-9.6,12.9-12c0.1,0,0.1,0,0.2-0.1c0.6-0.3,1.2-0.5,1.8-0.8c3.7-1.5,7.7-2.3,11.8-2.7
		c0.9-0.1,1.7-0.1,2.6-0.2c1.8-0.1,3.7-0.1,5.4-0.1h0c0.7,0,1.3,0,2,0c6.6,0.2,13.1,0.9,19.6,1.4c1,0.1,2.1,0.1,3.1,0.2
		c0.8,0,1.6,0.1,2.4,0.1c0.2,0,0.4,0,0.6,0c0.1,0,0.2,0,0.2,0c0.2,0,0.5,0,0.7,0c0.4,0,0.8,0,1.2,0c4.4,0.2,8,0.5,11.3,2.6
		c0.1,0.1,0.2,0.1,0.3,0.2c0,0,0.1,0.1,0.1,0.1c0.6,0.4,1.3,1,1.9,1.6c0,0,0.1,0.1,0.1,0.1c0.4,0.3,0.7,0.7,1,1.1
		c0.5,0.6,1.1,1.3,1.6,2.1c4.3,6.3,5.9,14,6.6,21.4C282.8,167.5,282.8,172.1,282.5,176.7z"/>
	<g>
		<g>
			<path class="st24" d="M255.3,270.4c-3.7,1.8-8.2,2-12.2,2.1c-3.8,0.1-7.9,0.2-11.5-1c-0.9-0.3-1.2,1.1-0.4,1.4
				c3.9,1.2,8.3,1.2,12.2,1c4.2-0.1,8.8-0.4,12.6-2.3C256.8,271.2,256.1,270,255.3,270.4L255.3,270.4z"/>
		</g>
	</g>
	<path class="st7" d="M249.7,113.6c0,0.1,0,0.2,0,0.3c0,0.1,0,0.1,0,0.2c0,0,0,0.1,0,0.1c0,0.1,0,0.2,0,0.3c0,0,0,0.1,0,0.1
		c0,0.1,0,0.3-0.1,0.4c0,0.2,0,0.3-0.1,0.4c0,0.1,0,0.1,0,0.2c0,0,0,0.1,0,0.1c0,0.1-0.1,0.3-0.1,0.4c-0.1,0.3-0.2,0.6-0.3,0.9
		c0,0.1-0.1,0.1-0.1,0.2c-0.3,0.6-0.6,1.2-0.9,1.8c-0.1,0.1-0.2,0.2-0.3,0.3c0,0.1-0.1,0.1-0.1,0.2c-0.1,0.1-0.2,0.2-0.2,0.3
		c-0.2,0.2-0.4,0.5-0.6,0.7c-0.1,0.1-0.2,0.2-0.3,0.3c-0.4,0.4-0.9,0.7-1.5,1c-0.4,0.2-0.8,0.4-1.2,0.6c-0.1,0-0.2,0.1-0.3,0.1
		c-0.1,0-0.1,0-0.2,0.1c0,0-0.1,0-0.1,0c0,0-0.1,0-0.1,0c-0.1,0-0.2,0.1-0.3,0.1c-0.7,0.2-1.3,0.3-2.1,0.3c-0.2,0-0.3,0-0.5,0
		c-1.7,0-3.4-0.5-4.8-1.3c-2.7-1.6-4.5-4.4-4.7-7.7l-0.1-2.2l-0.3-6.6l-0.1-2.1l-0.1-2.8c0-0.2,0-0.3,0-0.5c0-0.1,0-0.2,0-0.2
		c0-0.1,0-0.1,0-0.2c0-0.1,0-0.1,0-0.2c0,0,0,0,0,0c0,0,0-0.1,0-0.1c0,0,0-0.1,0-0.1c0,0,0-0.1,0-0.1c0-0.1,0-0.1,0-0.2
		c0-0.1,0-0.1,0-0.2c0,0,0-0.1,0-0.1c0-0.1,0-0.3,0.1-0.4c0-0.1,0-0.1,0-0.2c0-0.1,0-0.1,0-0.2c0-0.1,0-0.1,0-0.2c0,0,0,0,0,0
		c0-0.1,0-0.1,0.1-0.2c0-0.1,0-0.1,0.1-0.2c0-0.1,0-0.1,0.1-0.2c0-0.1,0.1-0.3,0.1-0.4c0,0,0,0,0-0.1c0-0.1,0.1-0.2,0.1-0.3
		c0,0,0,0,0-0.1c0-0.1,0.1-0.2,0.1-0.3c0,0,0,0,0,0c1.5-3,4.5-5.1,8-5.3c4-0.2,7.6,2.1,9.1,5.6c0.5,1,0.7,2.2,0.8,3.4l0.7,13.7
		C249.7,113.3,249.7,113.5,249.7,113.6z"/>
	<path class="st7" d="M225.3,108.8c0.1,2,1.8,3.6,3.8,3.5s3.6-1.8,3.5-3.8c-0.1-2-1.8-3.6-3.8-3.5
		C226.7,105.1,225.2,106.8,225.3,108.8z"/>
	<g>
		<path class="st8" d="M353.7,147c7.1-5.2,13.7-11.2,18.4-18.6c2.6-4.1,4.6-8.8,4.7-13.6c0.1-4.8-2.1-9.8-6.2-12.3
			c-7.3-4.3-17.1,0.7-22.7,7.3c-4.2,5-7.1,11.1-11.4,16c-4.2,4.7-9.3,8.8-14.6,12.1c-11,6.9-22.2,10-35.1,10.8
			c-8.3,0.5-33.4-4.6-38.1,3.6c-6.6,11.4,22,19.6,27.8,19.6C303.8,172.1,331.4,163.4,353.7,147z"/>
		<g>
			<path class="st7" d="M384.6,95.9c-0.9-1.4-6.6,3-6.6,3s7-6.2,6.5-7.3c-0.8-1.8-8.7,5.3-8.7,5.3s8.4-8,6.7-9.4
				c-1.7-1.4-9.1,7.5-9.1,7.5s6.4-8.8,4.8-9.7c-1.6-0.9-9.5,10.7-9.5,10.7s-0.7-7.1-2.1-7c-2.4,0.1-1.7,15.1-1.7,15.1l6.1,5.6
				C371.1,109.8,385.5,97.2,384.6,95.9z"/>
		</g>
		<path class="st8" d="M365.2,101.8l8.9,5.3c0.8,0.5,1.1,1.6,0.6,2.5l-1,1.7c-0.5,0.8-1.6,1.1-2.5,0.6l-8.9-5.3
			c-0.8-0.5-1.1-1.6-0.6-2.5l1-1.7C363.3,101.6,364.4,101.3,365.2,101.8z"/>
	</g>
	<polygon class="st9" points="269.3,343 289.9,425.9 309.4,426.3 289.1,334.8 	"/>
	<g>
		<path class="st8" d="M125.1,159.1c-8.3-2.8-16.5-6.4-23.2-12c-3.8-3.1-7.1-7-8.7-11.5c-1.6-4.6-1.1-10,2.1-13.6
			c5.6-6.4,16.5-4.6,23.8,0c5.6,3.5,10.2,8.4,15.8,11.7c5.4,3.2,11.6,5.5,17.7,7c12.6,3.2,24.2,2.7,36.7-0.6
			c8-2.1,24.8-5.6,31.8,0.8c9.8,8.8-9.2,16.3-14.8,18.1C180.3,167.5,151.3,167.8,125.1,159.1z"/>
		<g>
			<path class="st7" d="M79.9,120c0.4-1.6,7.2,0.8,7.2,0.8s-8.6-3.7-8.5-4.9c0.2-2,9.9,2.4,9.9,2.4s-10.4-5-9.2-6.8
				c1.2-1.8,10.9,4.3,10.9,4.3s-8.8-6.3-7.5-7.7c1.3-1.4,12.3,7.2,12.3,7.2s-1.6-6.9-0.2-7.3c2.3-0.7,6.3,13.9,6.3,13.9l-4,7.2
				C97.1,129.1,79.4,121.6,79.9,120z"/>
		</g>
		<path class="st8" d="M100.1,119.7l-6.9,7.8c-0.7,0.7-0.6,1.9,0.2,2.5l1.5,1.3c0.7,0.7,1.9,0.6,2.5-0.2l6.9-7.8
			c0.7-0.7,0.6-1.9-0.2-2.5l-1.5-1.3C101.9,118.9,100.8,118.9,100.1,119.7z"/>
	</g>
	<polyline class="st10" points="252.3,280.4 277.3,352.1 297.2,425.7 	"/>
	<polyline class="st10" points="233.7,276.7 223.5,345.5 218.4,421 	"/>
	<path class="st8" d="M248.1,128.5h-15c-1.2,0-2.1-0.9-2.1-2.1l0,0c0-1.2,0.9-2.1,2.1-2.1h15c1.2,0,2.1,0.9,2.1,2.1l0,0
		C250.2,127.6,249.2,128.5,248.1,128.5z"/>
	<path class="st8" d="M274.3,243.3h-66.6c-1.9,0-3.5-1.6-3.5-3.5l0,0c0-1.9,1.6-3.5,3.5-3.5h66.6c1.9,0,3.5,1.6,3.5,3.5l0,0
		C277.8,241.7,276.3,243.3,274.3,243.3z"/>
	<path class="st25" d="M239.5,109.9c0,0,0,0.1,0,0.1c0,1.9,1.5,3.4,3.4,3.4c1.9,0,3.4-1.5,3.4-3.4c0,0,0-0.1,0-0.1H239.5z"/>
	<path class="st26" d="M251.6,184.6c8.9,4.9,18.8,7.4,29.1,8.5c0.4-2.8,0.8-5.6,1.1-8.4c0.2-2,0.4-4,0.6-6c0-0.7,0.1-1.3,0.1-2
		c0.3-4.6,0.3-9.2-0.1-13.8c-0.7-7.5-2.3-15.1-6.6-21.4c-0.5-0.8-1.1-1.5-1.6-2.1c-0.3-0.4-0.7-0.8-1-1.1c0,0-0.1-0.1-0.1-0.1
		c-0.6-0.6-1.2-1.1-1.9-1.6c0,0-0.1-0.1-0.1-0.1c-0.1-0.1-0.2-0.1-0.3-0.2c-3.3-2.1-6.9-2.4-11.3-2.6c-0.4,0-0.8,0-1.2,0
		c-0.2,0-0.5,0-0.7,0c-0.1,0-0.2,0-0.2,0c-0.2,0-0.4,0-0.6,0c-0.8,0-1.6-0.1-2.4-0.1c-1-0.1-2.1-0.1-3.1-0.2
		c-6.5-0.5-13.1-1.2-19.6-1.4c-0.6,0-1.3,0-2,0h0c-1.8,0-3.6,0-5.4,0.1c-0.9,0-1.7,0.1-2.6,0.2c-0.4,0-0.8,0.1-1.3,0.1
		C225.3,152.3,233,174.3,251.6,184.6z"/>
	<path class="st10" d="M183.3,444.7c2.7-2.6,6.2-4.2,9.9-4.5"/>
	<path class="st10" d="M329.9,443.3c-2.7-2.6-6.2-4.2-9.9-4.5"/>
	<path class="st27" d="M271,62.2c-1.4-3.6-4.2-6.8-7.8-7.9c-3.6-1.1-7.6,0.1-10.5,2.5c-2.9,2.4-4.7,5.9-5.6,9.6
		c-1.3,4.9-1,10.1-2.4,15c-1.4,4.9-5.1,9.7-10.1,10c-1.7,0.1-3.5-0.3-4.9,0.7c-1.3,1-1.6,2.9-1.5,4.5c0.2,2.5,1.9,4.7,1.9,7.2
		c0,1.4,0,2.9,0.1,4.3h3.3c0.3-1.1,0.5-2.2,0.6-3.3c0.3-3.1-0.1-6.2-0.5-9.3c9.9,1.9,21.1-0.2,29.1-6.4
		C270.6,82.9,274.8,71.6,271,62.2z"/>
	<g>
		<path class="st28" d="M255.2,108.2h-17.8c-3.1,0-5.6-2.5-5.6-5.6l0,0c0-3.1,2.5-5.6,5.6-5.6h17.8c3.1,0,5.6,2.5,5.6,5.6l0,0
			C260.8,105.6,258.3,108.2,255.2,108.2z"/>
		<path class="st29" d="M255.3,106.3h-12.1c-2.1,0-3.8-1.7-3.8-3.8l0,0c0-2.1,1.7-3.8,3.8-3.8h12.1c2.1,0,3.8,1.7,3.8,3.8l0,0
			C259.1,104.7,257.4,106.3,255.3,106.3z"/>
		<path class="st30" d="M254.6,104.5h-10.7c-1,0-1.8-0.8-1.8-1.8l0,0c0-1,0.8-1.8,1.8-1.8h10.7c1,0,1.8,0.8,1.8,1.8l0,0
			C256.4,103.7,255.6,104.5,254.6,104.5z"/>
		<path class="st31" d="M235.5,104.4h-6.3c-1,0-1.9-0.8-1.9-1.9l0,0c0-1,0.8-1.9,1.9-1.9h6.3c1,0,1.9,0.8,1.9,1.9l0,0
			C237.4,103.6,236.5,104.4,235.5,104.4z"/>
	</g>
	<path class="st25" d="M212.8,156.9L212.8,156.9c-1.3,0-2.4-1.1-2.4-2.4l0,0c0-1.3,1.1-2.4,2.4-2.4l0,0c1.3,0,2.4,1.1,2.4,2.4l0,0
		C215.2,155.8,214.1,156.9,212.8,156.9z"/>
	<path class="st25" d="M212.4,171.4L212.4,171.4c-1.3,0-2.4-1.1-2.4-2.4l0,0c0-1.3,1.1-2.4,2.4-2.4l0,0c1.3,0,2.4,1.1,2.4,2.4l0,0
		C214.9,170.3,213.8,171.4,212.4,171.4z"/>
	<line class="st32" x1="221.4" y1="241.9" x2="221.4" y2="132"/>
</g>
<ellipse class="st33" cx="90.7" cy="110.2" rx="32.2" ry="32.2"/>
<ellipse class="st34" cx="90.7" cy="110.2" rx="39.1" ry="39.1"/>
<g>
	<path class="st11" d="M78.7,135.5c0.4-0.3,0.8-0.7,1.2-1c-9.3-4.1-15.8-13.5-15.8-24.3c0-9.4,4.9-17.6,12.2-22.3
		c-0.1-0.5-0.3-1-0.4-1.4c-8,4.9-13.3,13.8-13.3,23.8C62.7,121.3,69.2,131,78.7,135.5z"/>
	<path class="st11" d="M115.8,101.5c0.4-0.3,0.8-0.6,1.1-0.9c0,0,0,0,0.1,0c-3.9-10.7-14.2-18.4-26.3-18.4c-4.6,0-9,1.1-12.9,3.2
		c0.1,0.5,0.3,0.9,0.4,1.4c3.7-2,8-3.1,12.5-3.1C102.3,83.6,112.2,91.1,115.8,101.5z"/>
	<path class="st11" d="M116.4,103.7c0.5,2.1,0.8,4.3,0.8,6.5c0,14.6-11.9,26.6-26.6,26.6c-3,0-5.9-0.5-8.6-1.4
		c-0.4,0.4-0.8,0.7-1.3,1.1c3.1,1.2,6.4,1.8,9.9,1.8c15.4,0,28-12.6,28-28c0-2.6-0.4-5.1-1-7.5C117.2,103,116.8,103.3,116.4,103.7z"
		/>
</g>
<ellipse transform="matrix(1.213723e-03 -1 1 1.213723e-03 280.9713 469.849)" class="st34" cx="375.7" cy="94.3" rx="39.1" ry="39.1"/>
<ellipse class="st33" cx="375.7" cy="94.3" rx="32.2" ry="32.2"/>
<g>
	<path class="st11" d="M112.5,248.7c-13-3.3-20.2-7-20.2-10.6c0-8.9,44.1-18.4,113.3-21.2c-0.1-0.7-0.2-1.4-0.3-2.1
		c-61.8,2.7-115.2,11-115.2,23.3c0,4.9,8.4,9.2,22.4,12.7V248.7z"/>
	<path class="st11" d="M348,255c-26.1,3.2-60.2,5.2-99.8,5.2c-53.6,0-97-3.8-124.3-9v2.1c30.6,5.8,78,9.1,124.3,9.1
		c35.3,0,71.2-1.9,99.8-5.3V255z"/>
	<path class="st11" d="M277.1,214.3c-0.1,0.7-0.3,1.4-0.4,2.1c77.3,2,127.5,12.2,127.5,21.7c0,5.8-18.7,11.9-51,16.2v2.1
		c31.6-4.2,53.1-10.4,53.1-18.3C406.4,224.8,344.7,216.2,277.1,214.3z"/>
</g>
<linearGradient id="SVGID_00000013908552853959585860000005583679492693066673_" gradientUnits="userSpaceOnUse" x1="108.6525" y1="497.4396" x2="107.976" y2="353.6621">
	<stop  offset="0" style="stop-color:#2B1652"/>
	<stop  offset="0.2106" style="stop-color:#2D1854"/>
	<stop  offset="0.4062" style="stop-color:#34205C"/>
	<stop  offset="0.5959" style="stop-color:#402C6A"/>
	<stop  offset="0.7819" style="stop-color:#523D7E"/>
	<stop  offset="0.9636" style="stop-color:#69539C"/>
	<stop  offset="1" style="stop-color:#6F5AA6"/>
</linearGradient>
<line style="fill:none;stroke:url(#SVGID_00000013908552853959585860000005583679492693066673_);stroke-width:2;stroke-linecap:round;stroke-linejoin:round;stroke-miterlimit:10;" x1="108.3" y1="354.7" x2="108.3" y2="496.4"/>
<linearGradient id="SVGID_00000154409966440659943020000010973643051779894440_" gradientUnits="userSpaceOnUse" x1="388.8321" y1="502.9726" x2="388.1555" y2="359.195">
	<stop  offset="0" style="stop-color:#2B1652"/>
	<stop  offset="0.2106" style="stop-color:#2D1854"/>
	<stop  offset="0.4062" style="stop-color:#34205C"/>
	<stop  offset="0.5959" style="stop-color:#402C6A"/>
	<stop  offset="0.7819" style="stop-color:#523D7E"/>
	<stop  offset="0.9636" style="stop-color:#69539C"/>
	<stop  offset="1" style="stop-color:#6F5AA6"/>
</linearGradient>
<line style="fill:none;stroke:url(#SVGID_00000154409966440659943020000010973643051779894440_);stroke-width:2;stroke-linecap:round;stroke-linejoin:round;stroke-miterlimit:10;" x1="388.5" y1="360.2" x2="388.5" y2="502"/>
<linearGradient id="SVGID_00000029749470234143825780000015359026104938118786_" gradientUnits="userSpaceOnUse" x1="419.8753" y1="265.058" x2="419.3745" y2="158.6268">
	<stop  offset="0" style="stop-color:#2B1652"/>
	<stop  offset="0.2106" style="stop-color:#2D1854"/>
	<stop  offset="0.4062" style="stop-color:#34205C"/>
	<stop  offset="0.5959" style="stop-color:#402C6A"/>
	<stop  offset="0.7819" style="stop-color:#523D7E"/>
	<stop  offset="0.9636" style="stop-color:#69539C"/>
	<stop  offset="1" style="stop-color:#6F5AA6"/>
</linearGradient>
<line style="fill:none;stroke:url(#SVGID_00000029749470234143825780000015359026104938118786_);stroke-width:2;stroke-linecap:round;stroke-linejoin:round;stroke-miterlimit:10;" x1="419.6" y1="159.6" x2="419.6" y2="264.1"/>
<path class="st21" d="M185.5,328.5L185.5,328.5c-2,0-3.6-1.6-3.6-3.6l0,0c0-2,1.6-3.6,3.6-3.6l0,0c2,0,3.6,1.6,3.6,3.6l0,0
	C189.1,326.9,187.5,328.5,185.5,328.5z"/>
<path class="st21" d="M432.7,293.4L432.7,293.4c-2,0-3.6-1.6-3.6-3.6l0,0c0-2,1.6-3.6,3.6-3.6l0,0c2,0,3.6,1.6,3.6,3.6l0,0
	C436.3,291.7,434.7,293.4,432.7,293.4z"/>
<line class="st38" x1="509.3" y1="-18.3" x2="509.3" y2="522.1"/>
</svg>
