<?xml version="1.0" encoding="utf-8"?>
<!-- Generator: Adobe Illustrator 28.0.0, SVG Export Plug-In . SVG Version: 6.00 Build 0)  -->
<svg version="1.1" id="Layer_1" xmlns="http://www.w3.org/2000/svg" xmlns:xlink="http://www.w3.org/1999/xlink" x="0px" y="0px"
	 viewBox="0 0 150 150" style="enable-background:new 0 0 150 150;" xml:space="preserve">
<style type="text/css">
	.st0{fill:#FFFFFF;}
</style>
<g>
	<path class="st0" d="M31.7,61.97c-1.61,0.55-3.03,1.4-4.25,2.55c-1.22,1.15-2.19,2.59-2.91,4.33c-0.72,1.73-1.08,3.79-1.08,6.16
		c0,2.37,0.36,4.42,1.08,6.16c0.72,1.73,1.69,3.19,2.91,4.35c1.22,1.17,2.64,2.03,4.25,2.58c1.61,0.55,3.33,0.82,5.15,0.82
		c1.99,0,3.84-0.28,5.54-0.82c1.7-0.55,3.51-1.43,5.43-2.63l3.4,7.83c-2.16,1.34-4.47,2.33-6.93,2.99
		c-2.46,0.65-5.04,0.98-7.75,0.98c-3.4,0-6.47-0.56-9.22-1.67c-2.75-1.12-5.09-2.68-7.03-4.69c-1.94-2.01-3.43-4.37-4.48-7.08
		c-1.05-2.71-1.57-5.65-1.57-8.81c0-3.16,0.52-6.1,1.57-8.81c1.05-2.71,2.54-5.07,4.48-7.08c1.94-2.01,4.28-3.57,7.03-4.69
		c2.75-1.12,5.82-1.67,9.22-1.67c2.71,0,5.3,0.33,7.75,1c2.45,0.67,4.76,1.67,6.93,3.01l-3.4,7.78c-1.89-1.17-3.69-2.03-5.41-2.58
		c-1.72-0.55-3.57-0.82-5.56-0.82C35.03,61.14,33.32,61.42,31.7,61.97"/>
	<rect x="55.41" y="54.14" class="st0" width="8.55" height="43.11"/>
	<path class="st0" d="M70.36,62.56c-1-0.77-1.49-1.9-1.49-3.37c0-1.34,0.47-2.42,1.42-3.25c0.94-0.82,2.1-1.24,3.48-1.24
		c1.37,0,2.52,0.41,3.45,1.24c0.93,0.82,1.39,1.91,1.39,3.25c0,1.37-0.46,2.47-1.37,3.3c-0.91,0.82-2.07,1.24-3.48,1.24
		C72.49,63.72,71.35,63.33,70.36,62.56 M78.03,97.25h-8.55V66.91h8.55V97.25z M70.36,62.56c-1-0.77-1.49-1.9-1.49-3.37
		c0-1.34,0.47-2.42,1.42-3.25c0.94-0.82,2.1-1.24,3.48-1.24c1.37,0,2.52,0.41,3.45,1.24c0.93,0.82,1.39,1.91,1.39,3.25
		c0,1.37-0.46,2.47-1.37,3.3c-0.91,0.82-2.07,1.24-3.48,1.24C72.49,63.72,71.35,63.33,70.36,62.56"/>
	<path class="st0" d="M69.87,62.48c1.14,0.89,2.44,1.33,3.89,1.33c1.61,0,2.94-0.47,3.98-1.42c1.04-0.94,1.56-2.2,1.56-3.78
		c0-1.53-0.53-2.77-1.59-3.72c-1.06-0.94-2.38-1.42-3.95-1.42c-1.57,0-2.9,0.47-3.98,1.42c-1.08,0.94-1.62,2.18-1.62,3.72
		C68.16,60.3,68.73,61.59,69.87,62.48"/>
	<path class="st0" d="M84.71,74.92c0.81-1.94,1.94-3.63,3.4-5.07c1.46-1.44,3.18-2.57,5.15-3.37c1.97-0.81,4.13-1.21,6.46-1.21
		c2.06,0,3.92,0.21,5.59,0.64c1.67,0.43,3.44,1.12,5.33,2.09l-3.45,7.73c-1.34-0.76-2.55-1.29-3.63-1.6
		c-1.08-0.31-2.26-0.46-3.53-0.46c-1.17,0-2.22,0.18-3.17,0.54c-0.94,0.36-1.74,0.88-2.4,1.54c-0.65,0.67-1.16,1.47-1.52,2.4
		c-0.36,0.93-0.54,1.97-0.54,3.14c0,1.17,0.18,2.21,0.54,3.14c0.36,0.93,0.87,1.72,1.52,2.37c0.65,0.65,1.45,1.16,2.4,1.52
		c0.94,0.36,2,0.54,3.17,0.54c1.27,0,2.45-0.15,3.53-0.44c1.08-0.29,2.29-0.85,3.63-1.67l3.45,7.83c-1.89,0.96-3.67,1.65-5.33,2.06
		c-1.67,0.41-3.53,0.62-5.59,0.62c-2.34,0-4.49-0.4-6.46-1.21c-1.97-0.81-3.69-1.92-5.15-3.35c-1.46-1.42-2.59-3.11-3.4-5.05
		c-0.81-1.94-1.21-4.06-1.21-6.36C83.5,78.98,83.9,76.86,84.71,74.92"/>
	<path class="st0" d="M130.45,54.14c1.53,0,3.05-0.01,4.58,0.01c0.24,0,0.48,0.16,0.72,0.24c-0.11,0.23-0.17,0.52-0.34,0.69
		c-4.77,4.8-9.5,9.64-14.36,14.34c-3.28,3.17-3.28,9.35,0,12.52c4.81,4.64,9.47,9.43,14.19,14.16c0.12,0.12,0.27,0.22,0.35,0.37
		c0.09,0.15,0.19,0.37,0.15,0.5c-0.05,0.13-0.28,0.21-0.44,0.26c-0.18,0.04-0.38,0.01-0.57,0.01c-2.91,0-5.81-0.01-8.72,0.01
		c-0.48,0-0.84-0.12-1.18-0.47c-2.87-2.89-5.74-5.77-8.63-8.64c-0.91-0.9-1.35-1.95-1.35-3.24c0.02-6.13,0.02-12.26,0-18.4
		c0-1.29,0.44-2.34,1.35-3.24c2.89-2.87,5.77-5.75,8.63-8.64c0.34-0.35,0.7-0.48,1.18-0.48C127.48,54.15,128.96,54.14,130.45,54.14"
		/>
	<path class="st0" d="M128.61,75.67c0-3.16,0-6.32,0-9.49c0-0.4-0.01-0.87,0.48-0.89c0.27-0.01,0.66,0.26,0.82,0.51
		c1.91,3.11,3.79,6.23,5.68,9.35c0.22,0.37,0.23,0.69,0.01,1.06c-1.91,3.13-3.8,6.27-5.7,9.42c-0.2,0.33-0.46,0.67-0.84,0.45
		c-0.23-0.13-0.42-0.52-0.42-0.8C128.6,82.08,128.61,78.87,128.61,75.67"/>
</g>
</svg>
